<svg width="314" height="67" viewBox="0 0 314 67" fill="none" xmlns="http://www.w3.org/2000/svg">
<path d="M44.6921 54.4137C42.8534 54.4137 41.1527 54.0804 39.5898 53.4139C38.0499 52.7474 36.6939 51.8166 35.5217 50.6214C34.3725 49.4263 33.4762 48.0243 32.8327 46.4155C32.1891 44.8066 31.8674 43.0484 31.8674 41.1408C31.8674 39.2332 32.1776 37.4749 32.7982 35.8661C33.4417 34.2343 34.3381 32.8323 35.4872 31.6601C36.6594 30.465 38.0269 29.5456 39.5898 28.9021C41.1527 28.2356 42.8534 27.9023 44.6921 27.9023C46.5308 27.9023 48.1741 28.2126 49.622 28.8332C51.093 29.4537 52.3341 30.2811 53.3454 31.3154C54.3566 32.3266 55.0806 33.4413 55.5173 34.6595L51.3113 36.6245C50.8287 35.3375 50.0128 34.2802 48.8636 33.4528C47.7144 32.6024 46.3239 32.1772 44.6921 32.1772C43.0833 32.1772 41.6583 32.5565 40.4172 33.3149C39.1991 34.0734 38.2453 35.1191 37.5558 36.4522C36.8892 37.7852 36.556 39.3481 36.556 41.1408C36.556 42.9335 36.8892 44.5078 37.5558 45.8639C38.2453 47.1969 39.1991 48.2427 40.4172 49.0011C41.6583 49.7596 43.0833 50.1388 44.6921 50.1388C46.3239 50.1388 47.7144 49.7251 48.8636 48.8977C50.0128 48.0473 50.8287 46.9786 51.3113 45.6915L55.5173 47.6566C55.0806 48.8747 54.3566 50.0009 53.3454 51.0351C52.3341 52.0464 51.093 52.8623 49.622 53.4829C48.1741 54.1034 46.5308 54.4137 44.6921 54.4137ZM67.7783 54.4137C65.9396 54.4137 64.2619 53.9885 62.745 53.1381C61.251 52.2877 60.0559 51.1271 59.1595 49.6561C58.2862 48.1852 57.8495 46.5074 57.8495 44.6228C57.8495 42.7381 58.2862 41.0603 59.1595 39.5894C60.0559 38.1185 61.251 36.9578 62.745 36.1074C64.2389 35.257 65.9167 34.8318 67.7783 34.8318C69.617 34.8318 71.2833 35.257 72.7772 36.1074C74.2711 36.9578 75.4548 38.1185 76.3282 39.5894C77.2245 41.0374 77.6727 42.7151 77.6727 44.6228C77.6727 46.5074 77.2245 48.1852 76.3282 49.6561C75.4318 51.1271 74.2367 52.2877 72.7427 53.1381C71.2488 53.9885 69.594 54.4137 67.7783 54.4137ZM67.7783 50.2767C68.7896 50.2767 69.6745 50.0354 70.4329 49.5527C71.2143 49.0701 71.8234 48.4035 72.2601 47.5532C72.7198 46.6798 72.9496 45.703 72.9496 44.6228C72.9496 43.5196 72.7198 42.5543 72.2601 41.7269C71.8234 40.8765 71.2143 40.2099 70.4329 39.7273C69.6745 39.2217 68.7896 38.9688 67.7783 38.9688C66.7441 38.9688 65.8362 39.2217 65.0548 39.7273C64.2733 40.2099 63.6528 40.8765 63.1931 41.7269C62.7564 42.5543 62.5381 43.5196 62.5381 44.6228C62.5381 45.703 62.7564 46.6798 63.1931 47.5532C63.6528 48.4035 64.2733 49.0701 65.0548 49.5527C65.8362 50.0354 66.7441 50.2767 67.7783 50.2767ZM81.0976 54V35.2455H85.338V38.9344L84.9933 38.2793C85.4299 37.1532 86.1424 36.3028 87.1307 35.7282C88.142 35.1306 89.3141 34.8318 90.6472 34.8318C92.0262 34.8318 93.2443 35.1306 94.3015 35.7282C95.3818 36.3258 96.2207 37.1646 96.8182 38.2449C97.4158 39.3021 97.7146 40.5317 97.7146 41.9337V54H93.1983V43.0024C93.1983 42.175 93.0375 41.4625 92.7157 40.865C92.3939 40.2674 91.9457 39.8077 91.3712 39.486C90.8196 39.1412 90.1645 38.9688 89.4061 38.9688C88.6706 38.9688 88.0156 39.1412 87.441 39.486C86.8664 39.8077 86.4182 40.2674 86.0965 40.865C85.7747 41.4625 85.6138 42.175 85.6138 43.0024V54H81.0976ZM110.635 61.5845C109.233 61.5845 107.934 61.3547 106.739 60.895C105.544 60.4354 104.51 59.7918 103.636 58.9644C102.786 58.16 102.166 57.2062 101.775 56.103L105.981 54.5171C106.257 55.3905 106.797 56.0915 107.601 56.6201C108.429 57.1717 109.44 57.4475 110.635 57.4475C111.554 57.4475 112.359 57.2751 113.048 56.9304C113.761 56.5856 114.312 56.08 114.703 55.4135C115.094 54.7699 115.289 53.9885 115.289 53.0692V48.7943L116.151 49.8285C115.507 50.9547 114.646 51.8051 113.565 52.3797C112.485 52.9543 111.255 53.2415 109.876 53.2415C108.13 53.2415 106.567 52.8393 105.188 52.0349C103.809 51.2305 102.729 50.1273 101.947 48.7253C101.166 47.3233 100.775 45.749 100.775 44.0022C100.775 42.2325 101.166 40.6581 101.947 39.2791C102.729 37.9001 103.797 36.8199 105.153 36.0385C106.509 35.234 108.049 34.8318 109.773 34.8318C111.175 34.8318 112.405 35.1306 113.462 35.7282C114.542 36.3028 115.438 37.1417 116.151 38.2449L115.53 39.3825V35.2455H119.805V53.0692C119.805 54.701 119.403 56.1604 118.599 57.4475C117.817 58.7346 116.737 59.7459 115.358 60.4813C114.002 61.2168 112.428 61.5845 110.635 61.5845ZM110.428 49.0701C111.393 49.0701 112.232 48.8632 112.945 48.4495C113.68 48.0128 114.255 47.4153 114.669 46.6568C115.082 45.8983 115.289 45.025 115.289 44.0367C115.289 43.0714 115.071 42.2095 114.634 41.4511C114.22 40.6696 113.646 40.0606 112.91 39.6239C112.198 39.1872 111.37 38.9688 110.428 38.9688C109.486 38.9688 108.635 39.1872 107.877 39.6239C107.118 40.0606 106.521 40.6696 106.084 41.4511C105.671 42.2095 105.464 43.0714 105.464 44.0367C105.464 45.002 105.671 45.8639 106.084 46.6223C106.521 47.3808 107.107 47.9783 107.842 48.415C108.601 48.8517 109.463 49.0701 110.428 49.0701ZM124.023 54V35.2455H128.264V39.417L127.919 38.7965C128.356 37.3945 129.034 36.4177 129.953 35.8661C130.895 35.3145 132.021 35.0387 133.331 35.0387H134.435V39.0378H132.814C131.527 39.0378 130.493 39.44 129.712 40.2444C128.93 41.0259 128.539 42.1291 128.539 43.554V54H124.023ZM142.606 54.4137C141.296 54.4137 140.158 54.1954 139.193 53.7587C138.228 53.322 137.481 52.7014 136.952 51.897C136.424 51.0696 136.159 50.1158 136.159 49.0356C136.159 48.0013 136.389 47.082 136.849 46.2776C137.308 45.4502 138.021 44.7607 138.986 44.2091C139.951 43.6575 141.17 43.2667 142.641 43.0369L148.777 42.0371V45.4846L143.502 46.381C142.606 46.5419 141.94 46.8292 141.503 47.2429C141.066 47.6566 140.848 48.1967 140.848 48.8632C140.848 49.5067 141.089 50.0239 141.572 50.4146C142.077 50.7823 142.698 50.9662 143.433 50.9662C144.376 50.9662 145.203 50.7708 145.916 50.3801C146.651 49.9664 147.214 49.4033 147.605 48.6908C148.019 47.9783 148.225 47.1969 148.225 46.3465V41.52C148.225 40.7156 147.904 40.0491 147.26 39.5204C146.64 38.9688 145.812 38.693 144.778 38.693C143.813 38.693 142.951 38.9574 142.192 39.486C141.457 39.9916 140.917 40.6696 140.572 41.52L136.883 39.7273C137.251 38.739 137.825 37.8886 138.607 37.1761C139.411 36.4407 140.354 35.8661 141.434 35.4524C142.514 35.0387 143.686 34.8318 144.95 34.8318C146.49 34.8318 147.846 35.1191 149.018 35.6937C150.191 36.2453 151.098 37.0267 151.742 38.038C152.408 39.0263 152.742 40.187 152.742 41.52V54H148.467V50.7938L149.432 50.7249C148.949 51.5293 148.375 52.2073 147.708 52.7589C147.042 53.2875 146.283 53.7012 145.433 54C144.583 54.2758 143.64 54.4137 142.606 54.4137ZM165.129 54.2069C163.015 54.2069 161.371 53.6323 160.199 52.4831C159.05 51.3109 158.475 49.6676 158.475 47.5532V39.2791H155.235V35.2455H155.579C156.499 35.2455 157.211 35.0042 157.717 34.5216C158.223 34.0389 158.475 33.3379 158.475 32.4186V30.9706H162.992V35.2455H167.301V39.2791H162.992V47.3118C162.992 47.9324 163.095 48.461 163.302 48.8977C163.532 49.3344 163.876 49.6676 164.336 49.8975C164.819 50.1273 165.428 50.2422 166.163 50.2422C166.324 50.2422 166.508 50.2307 166.715 50.2077C166.945 50.1848 167.163 50.1618 167.37 50.1388V54C167.048 54.046 166.68 54.0919 166.267 54.1379C165.853 54.1839 165.474 54.2069 165.129 54.2069ZM177.509 54.4137C176.061 54.4137 174.797 54.0919 173.716 53.4484C172.659 52.8049 171.843 51.9085 171.269 50.7593C170.717 49.6102 170.441 48.2656 170.441 46.7257V35.2455H174.957V46.3465C174.957 47.128 175.107 47.8175 175.406 48.415C175.727 48.9896 176.176 49.4493 176.75 49.794C177.348 50.1158 178.014 50.2767 178.75 50.2767C179.485 50.2767 180.14 50.1158 180.715 49.794C181.289 49.4493 181.738 48.9781 182.059 48.3806C182.381 47.783 182.542 47.0705 182.542 46.2431V35.2455H187.058V54H182.783V50.3112L183.163 50.9662C182.726 52.1154 182.002 52.9772 180.991 53.5518C180.002 54.1264 178.842 54.4137 177.509 54.4137ZM191.256 54V27.9023H195.773V54H191.256ZM205.631 54.4137C204.321 54.4137 203.183 54.1954 202.218 53.7587C201.253 53.322 200.506 52.7014 199.977 51.897C199.448 51.0696 199.184 50.1158 199.184 49.0356C199.184 48.0013 199.414 47.082 199.874 46.2776C200.333 45.4502 201.046 44.7607 202.011 44.2091C202.976 43.6575 204.194 43.2667 205.665 43.0369L211.802 42.0371V45.4846L206.527 46.381C205.631 46.5419 204.964 46.8292 204.528 47.2429C204.091 47.6566 203.873 48.1967 203.873 48.8632C203.873 49.5067 204.114 50.0239 204.597 50.4146C205.102 50.7823 205.723 50.9662 206.458 50.9662C207.401 50.9662 208.228 50.7708 208.941 50.3801C209.676 49.9664 210.239 49.4033 210.63 48.6908C211.043 47.9783 211.25 47.1969 211.25 46.3465V41.52C211.25 40.7156 210.929 40.0491 210.285 39.5204C209.664 38.9688 208.837 38.693 207.803 38.693C206.838 38.693 205.976 38.9574 205.217 39.486C204.482 39.9916 203.942 40.6696 203.597 41.52L199.908 39.7273C200.276 38.739 200.85 37.8886 201.632 37.1761C202.436 36.4407 203.379 35.8661 204.459 35.4524C205.539 35.0387 206.711 34.8318 207.975 34.8318C209.515 34.8318 210.871 35.1191 212.043 35.6937C213.215 36.2453 214.123 37.0267 214.767 38.038C215.433 39.0263 215.767 40.187 215.767 41.52V54H211.492V50.7938L212.457 50.7249C211.974 51.5293 211.4 52.2073 210.733 52.7589C210.067 53.2875 209.308 53.7012 208.458 54C207.607 54.2758 206.665 54.4137 205.631 54.4137ZM228.154 54.2069C226.039 54.2069 224.396 53.6323 223.224 52.4831C222.075 51.3109 221.5 49.6676 221.5 47.5532V39.2791H218.26V35.2455H218.604C219.524 35.2455 220.236 35.0042 220.742 34.5216C221.247 34.0389 221.5 33.3379 221.5 32.4186V30.9706H226.016V35.2455H230.326V39.2791H226.016V47.3118C226.016 47.9324 226.12 48.461 226.327 48.8977C226.557 49.3344 226.901 49.6676 227.361 49.8975C227.844 50.1273 228.453 50.2422 229.188 50.2422C229.349 50.2422 229.533 50.2307 229.74 50.2077C229.97 50.1848 230.188 50.1618 230.395 50.1388V54C230.073 54.046 229.705 54.0919 229.292 54.1379C228.878 54.1839 228.499 54.2069 228.154 54.2069ZM233.845 54V35.2455H238.362V54H233.845ZM233.845 33.1425V28.316H238.362V33.1425H233.845ZM251.702 54.4137C249.863 54.4137 248.185 53.9885 246.668 53.1381C245.174 52.2877 243.979 51.1271 243.083 49.6561C242.21 48.1852 241.773 46.5074 241.773 44.6228C241.773 42.7381 242.21 41.0603 243.083 39.5894C243.979 38.1185 245.174 36.9578 246.668 36.1074C248.162 35.257 249.84 34.8318 251.702 34.8318C253.54 34.8318 255.207 35.257 256.701 36.1074C258.195 36.9578 259.378 38.1185 260.252 39.5894C261.148 41.0374 261.596 42.7151 261.596 44.6228C261.596 46.5074 261.148 48.1852 260.252 49.6561C259.355 51.1271 258.16 52.2877 256.666 53.1381C255.172 53.9885 253.517 54.4137 251.702 54.4137ZM251.702 50.2767C252.713 50.2767 253.598 50.0354 254.356 49.5527C255.138 49.0701 255.747 48.4035 256.184 47.5532C256.643 46.6798 256.873 45.703 256.873 44.6228C256.873 43.5196 256.643 42.5543 256.184 41.7269C255.747 40.8765 255.138 40.2099 254.356 39.7273C253.598 39.2217 252.713 38.9688 251.702 38.9688C250.668 38.9688 249.76 39.2217 248.978 39.7273C248.197 40.2099 247.576 40.8765 247.117 41.7269C246.68 42.5543 246.462 43.5196 246.462 44.6228C246.462 45.703 246.68 46.6798 247.117 47.5532C247.576 48.4035 248.197 49.0701 248.978 49.5527C249.76 50.0354 250.668 50.2767 251.702 50.2767ZM265.021 54V35.2455H269.261V38.9344L268.917 38.2793C269.353 37.1532 270.066 36.3028 271.054 35.7282C272.065 35.1306 273.238 34.8318 274.571 34.8318C275.95 34.8318 277.168 35.1306 278.225 35.7282C279.305 36.3258 280.144 37.1646 280.742 38.2449C281.339 39.3021 281.638 40.5317 281.638 41.9337V54H277.122V43.0024C277.122 42.175 276.961 41.4625 276.639 40.865C276.317 40.2674 275.869 39.8077 275.295 39.486C274.743 39.1412 274.088 38.9688 273.33 38.9688C272.594 38.9688 271.939 39.1412 271.364 39.486C270.79 39.8077 270.342 40.2674 270.02 40.865C269.698 41.4625 269.537 42.175 269.537 43.0024V54H265.021ZM292.593 54.4137C290.594 54.4137 288.847 53.9425 287.353 53.0002C285.882 52.0349 284.871 50.7364 284.319 49.1045L287.698 47.4842C288.181 48.5414 288.847 49.3688 289.697 49.9664C290.571 50.564 291.536 50.8628 292.593 50.8628C293.421 50.8628 294.076 50.6789 294.558 50.3112C295.041 49.9434 295.282 49.4608 295.282 48.8632C295.282 48.4955 295.179 48.1967 294.972 47.9669C294.788 47.714 294.524 47.5072 294.179 47.3463C293.857 47.1624 293.501 47.013 293.11 46.8981L290.042 46.0362C288.456 45.5766 287.25 44.8756 286.422 43.9333C285.618 42.9909 285.216 41.8762 285.216 40.5892C285.216 39.44 285.503 38.4402 286.078 37.5898C286.675 36.7165 287.491 36.0385 288.525 35.5558C289.582 35.0732 290.789 34.8318 292.145 34.8318C293.915 34.8318 295.478 35.257 296.834 36.1074C298.19 36.9578 299.155 38.1529 299.73 39.6928L296.282 41.3132C295.96 40.4628 295.42 39.7848 294.662 39.2791C293.903 38.7735 293.053 38.5207 292.111 38.5207C291.352 38.5207 290.755 38.693 290.318 39.0378C289.881 39.3825 289.663 39.8307 289.663 40.3823C289.663 40.7271 289.755 41.0259 289.939 41.2787C290.123 41.5315 290.375 41.7383 290.697 41.8992C291.042 42.0601 291.433 42.2095 291.869 42.3474L294.869 43.2438C296.409 43.7034 297.592 44.3929 298.42 45.3123C299.27 46.2316 299.695 47.3578 299.695 48.6908C299.695 49.817 299.396 50.8168 298.799 51.6902C298.201 52.5406 297.374 53.2071 296.317 53.6897C295.259 54.1724 294.018 54.4137 292.593 54.4137ZM305.476 46.2086L305.165 28.316H309.751L309.44 46.2086H305.476ZM305.165 54V49.1735H309.751V54H305.165Z" fill="url(#paint0_linear_1387_3389)"/>
<path d="M7.35352 43.1216C9.14951 43.0624 10.9534 43.068 12.7475 42.973" stroke="#F3808E" stroke-width="2.7259" stroke-miterlimit="1.5" stroke-linecap="round" stroke-linejoin="round"/>
<path d="M15.3398 19.4644C16.7024 20.9241 18.1747 22.2737 19.5574 23.7124" stroke="#F3808E" stroke-width="2.7259" stroke-miterlimit="1.5" stroke-linecap="round" stroke-linejoin="round"/>
<path d="M37.9865 15.9458C38.4127 13.2596 38.5649 10.5387 38.9843 7.85241" stroke="#F3808E" stroke-width="2.7259" stroke-miterlimit="1.5" stroke-linecap="round" stroke-linejoin="round"/>
<path d="M62.6454 22.2693C64.5074 20.3245 66.4323 18.374 68.1149 16.2685" stroke="#F3808E" stroke-width="2.7259" stroke-miterlimit="1.5" stroke-linecap="round" stroke-linejoin="round"/>
<defs>
<linearGradient id="paint0_linear_1387_3389" x1="358.5" y1="40" x2="30" y2="40" gradientUnits="userSpaceOnUse">
<stop stop-color="#F7EEA6"/>
<stop offset="0.310096" stop-color="#FCB236"/>
<stop offset="0.64096" stop-color="#F3808E"/>
<stop offset="1" stop-color="#78AAC5"/>
</linearGradient>
</defs>
</svg>
