<svg width="232" height="61" viewBox="0 0 232 61" fill="none" xmlns="http://www.w3.org/2000/svg">
<path d="M63.2735 36.6084V16.9031H65.8656V34.2279H74.5148V36.6084H63.2735ZM83.6971 36.9258C82.3217 36.9258 81.0961 36.5996 80.0205 35.9471C78.9449 35.2947 78.0985 34.4042 77.4813 33.2757C76.8641 32.1295 76.5555 30.8511 76.5555 29.4404C76.5555 28.0121 76.8553 26.7425 77.4549 25.6316C78.072 24.5207 78.9008 23.6479 79.9412 23.0131C80.9992 22.3606 82.1806 22.0344 83.4855 22.0344C84.5435 22.0344 85.478 22.2284 86.2892 22.6163C87.1179 22.9866 87.8145 23.498 88.3787 24.1504C88.9606 24.7852 89.4015 25.517 89.7012 26.3458C90.0186 27.1569 90.1773 28.0033 90.1773 28.885C90.1773 29.0789 90.1597 29.2994 90.1244 29.5462C90.1068 29.7755 90.0804 29.9959 90.0451 30.2075H78.3542V28.0915H88.6168L87.453 29.0437C87.6117 28.1267 87.5235 27.3068 87.1885 26.5838C86.8534 25.8609 86.3597 25.2878 85.7073 24.8646C85.0548 24.4414 84.3142 24.2298 83.4855 24.2298C82.6567 24.2298 81.8985 24.4414 81.2108 24.8646C80.5231 25.2878 79.9852 25.8961 79.5973 26.6896C79.227 27.4655 79.0771 28.3912 79.1477 29.4669C79.0771 30.5072 79.2358 31.4242 79.6238 32.2177C80.0293 32.9936 80.5936 33.6019 81.3166 34.0427C82.0572 34.4659 82.8595 34.6775 83.7235 34.6775C84.6757 34.6775 85.478 34.4571 86.1305 34.0163C86.7829 33.5755 87.3119 33.0112 87.7175 32.3235L89.7806 33.3815C89.4984 34.0339 89.0576 34.6335 88.4581 35.1801C87.8762 35.7091 87.1797 36.1323 86.3685 36.4497C85.575 36.7671 84.6845 36.9258 83.6971 36.9258ZM97.3829 36.9258C96.4483 36.9258 95.6196 36.7583 94.8966 36.4232C94.1913 36.0706 93.6358 35.5945 93.2303 34.9949C92.8247 34.3778 92.6219 33.6724 92.6219 32.8789C92.6219 32.1207 92.7806 31.4418 93.098 30.8423C93.433 30.2251 93.9444 29.7049 94.6321 29.2817C95.3374 28.8585 96.2191 28.5588 97.2771 28.3824L102.567 27.5096V29.5727L97.8326 30.3662C96.9156 30.5249 96.2456 30.8158 95.8224 31.239C95.4168 31.6622 95.214 32.1824 95.214 32.7996C95.214 33.3815 95.4432 33.8664 95.9017 34.2543C96.3778 34.6423 96.9685 34.8362 97.6739 34.8362C98.5732 34.8362 99.349 34.6511 100.001 34.2808C100.672 33.8929 101.192 33.3727 101.562 32.7202C101.95 32.0678 102.144 31.3448 102.144 30.5513V26.9277C102.144 26.1518 101.853 25.5258 101.271 25.0497C100.707 24.556 99.9574 24.3091 99.0228 24.3091C98.2117 24.3091 97.4887 24.5207 96.8539 24.9439C96.2367 25.3495 95.7783 25.8961 95.4785 26.5838L93.3361 25.4729C93.6006 24.8205 94.0238 24.2386 94.6057 23.7272C95.1876 23.1982 95.8664 22.7838 96.6423 22.4841C97.4182 22.1843 98.2293 22.0344 99.0757 22.0344C100.169 22.0344 101.13 22.246 101.959 22.6692C102.788 23.0748 103.431 23.6479 103.89 24.3885C104.366 25.1114 104.604 25.9578 104.604 26.9277V36.6084H102.197V33.9105L102.646 34.0692C102.347 34.6335 101.941 35.1272 101.43 35.5504C100.918 35.9736 100.319 36.3086 99.6312 36.5555C98.9435 36.8024 98.194 36.9258 97.3829 36.9258ZM114.898 36.9258C113.558 36.9258 112.35 36.5996 111.274 35.9471C110.216 35.2947 109.379 34.4042 108.762 33.2757C108.144 32.1472 107.836 30.8864 107.836 29.4933C107.836 28.065 108.144 26.7954 108.762 25.6845C109.379 24.556 110.216 23.6655 111.274 23.0131C112.35 22.3606 113.558 22.0344 114.898 22.0344C116.079 22.0344 117.129 22.2901 118.046 22.8015C118.963 23.2952 119.685 23.9653 120.214 24.8117L119.818 25.42V16.5857H122.304V36.6084H119.897V33.5666L120.214 33.9898C119.721 34.9244 118.998 35.6474 118.046 36.1587C117.111 36.6701 116.062 36.9258 114.898 36.9258ZM115.11 34.5453C116.009 34.5453 116.811 34.3249 117.517 33.884C118.222 33.4432 118.777 32.8437 119.183 32.0854C119.606 31.3096 119.818 30.4455 119.818 29.4933C119.818 28.5235 119.606 27.6595 119.183 26.9012C118.777 26.1254 118.222 25.517 117.517 25.0762C116.811 24.6353 116.009 24.4149 115.11 24.4149C114.228 24.4149 113.426 24.6441 112.703 25.1026C111.997 25.5435 111.442 26.143 111.036 26.9012C110.631 27.6418 110.428 28.5059 110.428 29.4933C110.428 30.4455 110.631 31.3096 111.036 32.0854C111.442 32.8437 111.997 33.4432 112.703 33.884C113.408 34.3249 114.21 34.5453 115.11 34.5453ZM131.216 36.9258C129.788 36.9258 128.545 36.5731 127.487 35.8678C126.429 35.1625 125.679 34.2103 125.239 33.0112L127.196 32.059C127.601 32.9054 128.157 33.5755 128.862 34.0692C129.568 34.5629 130.352 34.8098 131.216 34.8098C131.992 34.8098 132.636 34.6246 133.147 34.2543C133.658 33.884 133.914 33.3991 133.914 32.7996C133.914 32.3764 133.791 32.0414 133.544 31.7945C133.315 31.53 133.033 31.3272 132.697 31.1861C132.362 31.0274 132.054 30.9128 131.772 30.8423L129.629 30.2339C128.342 29.8636 127.399 29.3346 126.799 28.6469C126.217 27.9592 125.926 27.1569 125.926 26.24C125.926 25.3936 126.138 24.6618 126.561 24.0446C127.002 23.4098 127.593 22.9161 128.333 22.5634C129.091 22.2107 129.938 22.0344 130.872 22.0344C132.124 22.0344 133.244 22.3518 134.232 22.9866C135.237 23.6214 135.951 24.5119 136.374 25.6581L134.364 26.5838C134.046 25.8432 133.57 25.2613 132.936 24.8381C132.301 24.3973 131.587 24.1769 130.793 24.1769C130.07 24.1769 129.497 24.362 129.074 24.7323C128.651 25.085 128.439 25.5346 128.439 26.0813C128.439 26.4868 128.545 26.8219 128.756 27.0864C128.968 27.3332 129.224 27.5272 129.523 27.6683C129.823 27.7917 130.114 27.8975 130.396 27.9857L132.724 28.6734C133.888 29.0084 134.787 29.5286 135.422 30.2339C136.074 30.9393 136.4 31.7857 136.4 32.7731C136.4 33.5666 136.18 34.2808 135.739 34.9156C135.298 35.5504 134.69 36.0441 133.914 36.3968C133.138 36.7495 132.239 36.9258 131.216 36.9258ZM139.912 36.6084V16.9031H142.292L149.672 27.4038H148.455L155.782 16.9031H158.162V36.6084H155.544V20.1829L156.469 20.4739L149.143 30.7894H148.931L141.684 20.4739L142.504 20.1829V36.6084H139.912ZM166.427 36.9258C165.492 36.9258 164.664 36.7583 163.941 36.4232C163.235 36.0706 162.68 35.5945 162.274 34.9949C161.869 34.3778 161.666 33.6724 161.666 32.8789C161.666 32.1207 161.825 31.4418 162.142 30.8423C162.477 30.2251 162.988 29.7049 163.676 29.2817C164.381 28.8585 165.263 28.5588 166.321 28.3824L171.611 27.5096V29.5727L166.877 30.3662C165.96 30.5249 165.29 30.8158 164.866 31.239C164.461 31.6622 164.258 32.1824 164.258 32.7996C164.258 33.3815 164.487 33.8664 164.946 34.2543C165.422 34.6423 166.013 34.8362 166.718 34.8362C167.617 34.8362 168.393 34.6511 169.045 34.2808C169.716 33.8929 170.236 33.3727 170.606 32.7202C170.994 32.0678 171.188 31.3448 171.188 30.5513V26.9277C171.188 26.1518 170.897 25.5258 170.315 25.0497C169.751 24.556 169.001 24.3091 168.067 24.3091C167.256 24.3091 166.533 24.5207 165.898 24.9439C165.281 25.3495 164.822 25.8961 164.522 26.5838L162.38 25.4729C162.645 24.8205 163.068 24.2386 163.65 23.7272C164.232 23.1982 164.91 22.7838 165.686 22.4841C166.462 22.1843 167.273 22.0344 168.12 22.0344C169.213 22.0344 170.174 22.246 171.003 22.6692C171.832 23.0748 172.475 23.6479 172.934 24.3885C173.41 25.1114 173.648 25.9578 173.648 26.9277V36.6084H171.241V33.9105L171.69 34.0692C171.391 34.6335 170.985 35.1272 170.474 35.5504C169.962 35.9736 169.363 36.3086 168.675 36.5555C167.987 36.8024 167.238 36.9258 166.427 36.9258ZM182.996 36.7671C181.603 36.7671 180.527 36.3703 179.769 35.5768C179.028 34.7833 178.658 33.6636 178.658 32.2177V24.7059H176.066V22.3518H176.595C177.23 22.3518 177.732 22.1578 178.103 21.7699C178.473 21.382 178.658 20.8706 178.658 20.2358V19.072H181.118V22.3518H184.319V24.7059H181.118V32.1383C181.118 32.6144 181.189 33.0288 181.33 33.3815C181.488 33.7342 181.744 34.0163 182.097 34.2279C182.449 34.4219 182.917 34.5188 183.499 34.5188C183.622 34.5188 183.772 34.51 183.948 34.4924C184.142 34.4748 184.319 34.4571 184.477 34.4395V36.6084C184.248 36.6613 183.992 36.6966 183.71 36.7142C183.428 36.7495 183.19 36.7671 182.996 36.7671ZM193.863 36.9258C192.487 36.9258 191.262 36.5996 190.186 35.9471C189.11 35.2947 188.264 34.4042 187.647 33.2757C187.03 32.1295 186.721 30.8511 186.721 29.4404C186.721 28.0121 187.021 26.7425 187.62 25.6316C188.238 24.5207 189.066 23.6479 190.107 23.0131C191.165 22.3606 192.346 22.0344 193.651 22.0344C194.709 22.0344 195.644 22.2284 196.455 22.6163C197.284 22.9866 197.98 23.498 198.544 24.1504C199.126 24.7852 199.567 25.517 199.867 26.3458C200.184 27.1569 200.343 28.0033 200.343 28.885C200.343 29.0789 200.325 29.2994 200.29 29.5462C200.272 29.7755 200.246 29.9959 200.211 30.2075H188.52V28.0915H198.782L197.619 29.0437C197.777 28.1267 197.689 27.3068 197.354 26.5838C197.019 25.8609 196.525 25.2878 195.873 24.8646C195.22 24.4414 194.48 24.2298 193.651 24.2298C192.822 24.2298 192.064 24.4414 191.376 24.8646C190.689 25.2878 190.151 25.8961 189.763 26.6896C189.393 27.4655 189.243 28.3912 189.313 29.4669C189.243 30.5072 189.401 31.4242 189.789 32.2177C190.195 32.9936 190.759 33.6019 191.482 34.0427C192.223 34.4659 193.025 34.6775 193.889 34.6775C194.841 34.6775 195.644 34.4571 196.296 34.0163C196.948 33.5755 197.477 33.0112 197.883 32.3235L199.946 33.3815C199.664 34.0339 199.223 34.6335 198.624 35.1801C198.042 35.7091 197.345 36.1323 196.534 36.4497C195.741 36.7671 194.85 36.9258 193.863 36.9258Z" fill="black"/>
<path d="M206.509 36.6084L213.571 16.9031H216.639L223.701 36.6084H220.924L219.31 31.9796H210.899L209.286 36.6084H206.509ZM211.719 29.5991H218.491L214.735 18.7811H215.475L211.719 29.5991ZM225.893 36.6084V22.3518H228.353V36.6084H225.893ZM225.893 20.0771V16.9031H228.353V20.0771H225.893Z" fill="url(#paint0_linear_749_2)"/>
<path fill-rule="evenodd" clip-rule="evenodd" d="M42.0752 25.3848C41.6028 25.388 41.2246 25.7743 41.2009 26.2461C40.8705 32.8488 36.412 37.7511 31.8706 39.768C22.4315 43.9608 11.9775 38.1536 9.91648 28.9714C7.80526 19.5662 14.0074 10.201 24.4709 9.44806C24.9326 9.41483 25.3035 9.03894 25.305 8.57607L25.3299 0.890663C25.3314 0.432533 24.9731 0.0522207 24.5149 0.0527457C18.6412 0.0594765 11.5217 3.06145 7.83112 7.09257C7.16012 7.82558 6.71279 7.9806 6.08829 8.81031C1.32631 15.138 -1.13256 21.5003 0.507668 30.1791C1.31228 34.4361 3.58883 39.2328 6.27948 41.9478L11.3869 47.2243C13.1391 48.9861 22.6712 58.7467 24.9552 60.6937C25.1941 60.8974 25.5116 60.8955 25.7505 60.6917C28.2476 58.5612 39.2918 47.1782 40.6439 45.8351C45.3687 41.1418 50.1214 36.2129 50.5898 26.2095C50.6124 25.7275 50.2212 25.3304 49.7388 25.3336L42.0752 25.3848Z" fill="url(#paint1_linear_749_2)"/>
<path d="M19.1923 19.7046H16.622C16.4327 19.7046 16.2793 19.858 16.2793 20.0473V29.9858C16.2793 30.1751 16.4327 30.3285 16.622 30.3285H19.1923C19.3816 30.3285 19.535 30.1751 19.535 29.9858V20.0473C19.535 19.858 19.3816 19.7046 19.1923 19.7046Z" fill="black"/>
<path d="M28.3439 24.7936L33.1935 19.944C33.3273 19.8102 33.5443 19.8102 33.6781 19.944L35.0094 21.2752C35.1432 21.4091 35.1432 21.6261 35.0094 21.7599L31.9757 24.7936C31.8419 24.9274 31.8419 25.1444 31.9757 25.2782L35.0094 28.3119C35.1432 28.4457 35.1432 28.6627 35.0094 28.7965L33.6781 30.1278C33.5443 30.2616 33.3273 30.2616 33.1935 30.1278L28.3439 25.2782C28.2101 25.1444 28.2101 24.9274 28.3439 24.7936Z" fill="black"/>
<path fill-rule="evenodd" clip-rule="evenodd" d="M31.439 8.50441C31.4371 8.97572 31.8162 9.36006 32.2875 9.36459L40.3431 9.44202C40.8118 9.44653 41.1898 9.82675 41.1916 10.2954L41.2227 18.2625C41.2245 18.7338 41.6066 19.1151 42.0778 19.116L49.7731 19.1305C50.2465 19.1314 50.6309 18.7482 50.6315 18.2749L50.6551 0.937621C50.6557 0.465441 50.2742 0.0817521 49.802 0.079699L32.3302 0.00372665C31.8569 0.00166867 31.4717 0.383755 31.4697 0.857041L31.439 8.50441Z" fill="url(#paint2_linear_749_2)"/>
<defs>
<linearGradient id="paint0_linear_749_2" x1="203.174" y1="26.1184" x2="202.697" y2="35.3045" gradientUnits="userSpaceOnUse">
<stop offset="0.0216666" stop-color="#78AAC5"/>
<stop offset="0.318199" stop-color="#F3808E"/>
<stop offset="0.693895" stop-color="#FCB236"/>
<stop offset="1" stop-color="#F7EEA6"/>
</linearGradient>
<linearGradient id="paint1_linear_749_2" x1="6.22322e-07" y1="9.63153" x2="30.5804" y2="61.0996" gradientUnits="userSpaceOnUse">
<stop offset="0.0216666" stop-color="#78AAC5"/>
<stop offset="0.318199" stop-color="#F3808E"/>
<stop offset="0.693895" stop-color="#FCB236"/>
<stop offset="1" stop-color="#F7EEA6"/>
</linearGradient>
<linearGradient id="paint2_linear_749_2" x1="31.4355" y1="3.00689" x2="40.0861" y2="20.6178" gradientUnits="userSpaceOnUse">
<stop offset="0.0216666" stop-color="#78AAC5"/>
<stop offset="0.318199" stop-color="#F3808E"/>
<stop offset="0.693895" stop-color="#FCB236"/>
<stop offset="1" stop-color="#F7EEA6"/>
</linearGradient>
</defs>
</svg>
